<?xml version="1.0" encoding="UTF-8"?>
<svg width="50px" height="50px" viewBox="0 0 50 50" version="1.1" xmlns="http://www.w3.org/2000/svg" xmlns:xlink="http://www.w3.org/1999/xlink">
    <title>colorhunt-logo-tongue</title>
    <g id="colorhunt-logo-tongue" stroke="none" stroke-width="1" fill="none" fill-rule="evenodd">
        <g id="Group-14" transform="translate(14.000000, 17.000000)">
            <path d="M12.2117098,20.9810726 C16.7481388,20.9810726 20.4388391,17.2903722 20.4388391,12.7539432 L20.4388391,12.5154069 L3.98458044,12.5154069 L3.98458044,12.7539432 C3.98458044,17.2903722 7.67528076,20.9810726 12.2117098,20.9810726" id="Fill-1" fill="#924992"></path>
            <path d="M20.4388391,8.07373628 L3.98458044,8.07373628 L3.98458044,12.7539129 C3.98458044,14.5483356 4.56370978,16.2090044 5.5424858,17.5626953 L18.8809338,17.5626953 C19.8598107,16.2090044 20.4388391,14.5483356 20.4388391,12.7539129 L20.4388391,8.07373628 Z" id="Fill-3" fill="#FF6868"></path>
            <path d="M3.98458044,0.943187382 L3.98458044,11.6068593 L20.4388391,11.6068593 L20.4388391,0.943187382 C18.6103697,0.943187382 13.1256168,0.943187382 3.98458044,0.943187382 Z" id="Fill-5" fill="#FEED30"></path>
            <g id="Group-9" transform="translate(0.000000, 0.451104)" fill="#111111">
                <path d="M19.1265363,12.3028391 C19.1265363,16.8392681 15.435836,20.5299685 10.8994069,20.5299685 C6.36297792,20.5299685 2.6722776,16.8392681 2.6722776,12.3028391 L2.6722776,0.653324921 L19.1265363,0.674523659 L19.1265363,12.3028391 Z M0.0476719243,0.0126182965 L0.0476719243,12.3028391 C0.0476719243,18.2864353 4.91570978,23.1545741 10.8994069,23.1545741 C16.8830032,23.1545741 21.751142,18.2864353 21.751142,12.3028391 L21.751142,0.0405804416 L0.0476719243,0.0126182965 Z" id="Fill-7"></path>
            </g>
        </g>
    </g>
</svg>